<svg xmlns="http://www.w3.org/2000/svg" width="1000" height="1000" fill="none"><path fill="#000" d="M0 0h1000v1000H0z"/><path fill="#fff" d="M195.586 553.571h19.333v215.714h-19.333V553.571Zm0-367.881h19.333v215.714h-19.333V185.69Zm-45.57-84.46v796.846h88.403l22.825-89.766-.493-236.016-22.039-84.413 22.666-86.398V185.69l-23.118-84.46H150h.016ZM327.313 185.69h19.333v215.714h-19.333V185.69Zm-46.261-84.476v796.957h45.738V552.817h19.801v345.005h45.919V571.277l-22.333-83.404 22.73-86.374-.381-215.801-23.039-84.484h-88.435ZM457.803 101.222H411.97v797.044h45.833V101.222ZM477.913 101.222v797.021h88.768l22.238-86.168-.072-260.585h-46.094v217.652h-19.008V230.363h19.27v171.128h45.38V101.222H477.913ZM608.378 101v796.893h45.984V553.095h19.753V898.06h45.848V508.303l-21.182-84.031h21.595V101.04h-45.658v323.065h-20.412V101h-45.928ZM825.651 101l-86.664.222-.619 280.038 65.458 256.223v131.643h-18.999V635.029h-46.459v263.214h89.386L850 811.535V633.472l-65.522-256.2V231.356h19.61v170.135h45.38V185.69L825.651 101Z"/></svg>