<svg xmlns="http://www.w3.org/2000/svg" viewBox="0 0 883 1004" fill="none"><path fill="currentColor" d="M57.44 569.76H81.8v271.57H57.44V569.76Zm0-463.14H81.8v271.57H57.44V106.62ZM.02.29v1003.18h111.39l28.76-113.01-.62-297.13-27.77-106.27 28.56-108.77V106.62L111.21.29H0h.02ZM223.42 106.62h24.36v271.57h-24.36V106.62ZM165.13.27v1003.32h57.63V568.81h24.95v434.34h57.86v-411.1l-28.14-105 28.64-108.74-.48-271.68L276.56.27H165.13ZM387.84.28h-57.75v1003.43h57.75V.28ZM413.18.28v1003.4h111.85l28.02-108.48-.09-328.06h-58.08v274.01h-23.95V162.86h24.28V378.3h57.18V.28H413.18ZM577.57 0v1003.24h57.94V569.16h24.89v434.29h57.77V512.77l-26.69-105.79h27.21V.05h-57.53v406.72h-25.72V0h-57.87ZM851.34 0l-109.2.28-.78 352.55 82.48 322.57v165.73H799.9V672.31h-58.54v331.37h112.63l28.03-109.16V670.35l-82.56-322.54v-183.7h24.71V378.3h57.18V106.62L851.34 0Z"/></svg>