<svg xmlns="http://www.w3.org/2000/svg" viewBox="0 0 992 804" fill="none"><path fill="currentColor" d="M301.27.01v31.84h39.98v215.08h33.95V31.85h39.63V.01H301.27Zm229.22 104.72h-64.02V.01h-33.95v246.91h33.95V136.54h64.02v110.38h33.95V.01h-33.95v104.72Zm98.35 33.6h54.48v-30.77h-54.48V31.84h59.43V0h-93.39v246.91h95.51v-31.84h-61.55V138.3v.03ZM315.61 672.05c16.62-8.84 30.07-26.18 30.07-54.13 0-37.49-25.11-61.55-70.75-61.55h-93.04v246.91h96.93c47.75 0 75.35-28.3 75.35-72.16 0-32.53-15.57-50.94-38.56-59.09v.02Zm-53.78-62.25c12.73 0 20.15 8.14 20.15 20.15 0 12.01-7.42 19.8-20.15 19.8h-10.96v-39.98h10.96v.03Zm-10.96 138.33v-45.29h13.08c13.08 0 20.87 8.14 20.87 22.64s-7.77 22.64-20.87 22.64h-13.08v.01Zm248.33-68.28c21.57-8.14 36.07-27.25 36.07-57.67 0-41.75-26.53-65.79-70.75-65.79h-97.63V803.3h68.98v-95.51h10.61c12.38 0 18.39 8.14 18.39 26.18v69.33h69.7v-68.98c0-30.77-12.38-48.47-35.37-54.48v.01Zm-63.32-29.37V609.8h11.68c13.08 0 20.15 7.77 20.15 20.15 0 12.38-7.07 20.52-20.15 20.52h-11.68v.01ZM621.59 803.3V556.39h-68.98V803.3h68.98Zm120.27-246.91-19.11 67.21-17.69-67.21h-75l45.64 117.1-46.33 129.83h67.56l19.46-70.75 18.04 70.75h75.35l-46.33-123.11 46.33-123.81h-67.93l.02-.02-.01.01ZM0 279.06v64.02h28.65v182.89h68.98V343.08h28.65v-64.02H0Zm249.03 250.45c76.77 0 127.71-50.94 127.71-126.99S325.8 275.53 249.03 275.53s-126.99 50.59-126.99 126.99c0 76.4 50.59 126.99 126.99 126.99Zm.35-70.74c-30.77 0-51.99-22.99-51.99-56.25 0-33.26 21.22-56.25 51.99-56.25 30.77 0 52.36 22.99 52.36 56.25 0 33.26-21.57 56.25-52.36 56.25ZM517.51 428l-43.87-148.94h-82.78v246.91h57.32l-1.42-149.64 43.87 149.64h82.43V279.06h-57.32L517.51 428ZM762.44 528.22c71.47 0 121.69-50.59 121.69-125.94s-50.24-125.94-121.69-125.94c-71.45 0-121.34 50.59-121.34 125.94s50.59 125.94 121.34 125.94Zm0-32.91c-49.87 0-85.24-37.49-85.24-93.04 0-55.55 35.37-93.04 85.24-93.04s85.96 37.49 85.96 93.04c0 55.55-35.72 93.04-85.96 93.04Zm229.22-216.49h-86.31v246.91h33.95V422.08h47.05v-31.84H939.3v-79.59h52.36v-31.84.01Z"/></svg>